<svg width="414" height="375" viewBox="0 0 414 375" fill="none" xmlns="http://www.w3.org/2000/svg">
  <path d="M210.229 237.643H199.795L199.843 315.37H242.104V305.756H210.277L210.229 237.643Z" fill="white"/>
  <path d="M282.321 301.73C279.689 304.457 275.333 307.183 269.398 307.183C261.453 307.183 258.247 303.261 258.247 298.143C258.247 290.442 263.607 286.759 274.998 286.759C277.152 286.759 280.598 286.998 282.369 287.333V301.73H282.321ZM271.504 254.616C263.081 254.616 255.327 257.582 249.297 262.604L252.982 269.013C257.242 266.526 262.459 264.039 269.973 264.039C278.54 264.039 282.321 268.439 282.321 275.806V279.584C280.646 279.249 277.2 279.01 275.094 279.01C256.811 279.01 247.526 285.42 247.526 298.813C247.526 310.818 254.896 316.845 266.048 316.845C273.562 316.845 280.789 313.401 283.278 307.805L285.193 315.41H292.563V275.614C292.515 263.034 287.059 254.616 271.504 254.616Z" fill="white"/>
  <path d="M326.229 307.539C322.304 307.539 318.858 307.061 316.273 305.865V273.674V269.943C319.815 266.978 324.218 264.826 329.818 264.826C339.917 264.826 343.794 271.952 343.794 283.48C343.794 299.838 337.524 307.539 326.229 307.539ZM330.632 254.637C321.299 254.637 316.273 260.999 316.273 260.999V250.954L316.226 237.657H311.535H306.031L306.079 313.47C311.2 315.623 318.188 316.771 325.798 316.771C345.277 316.771 354.658 304.334 354.658 282.858C354.61 265.878 345.947 254.637 330.632 254.637Z" fill="white"/>
  <path d="M96.6262 246.076C105.863 246.076 111.846 249.138 115.723 252.247L120.222 244.45C114.143 239.093 105.911 236.223 97.1048 236.223C74.8972 236.223 59.3423 249.759 59.3423 277.071C59.3423 305.675 76.1416 316.819 95.334 316.819C104.954 316.819 113.138 314.571 118.499 312.323L118.26 281.759V278.171V272.145H89.7821V281.759H107.969L108.209 304.957C105.816 306.153 101.7 307.11 96.0998 307.11C80.6884 307.11 70.3504 297.4 70.3504 276.976C70.3025 256.169 80.9756 246.076 96.6262 246.076Z" fill="white"/>
  <path d="M170.106 237.633H159.912L159.96 250.691V256.048V259.157V264.61V295.7V295.796C159.96 308.376 165.416 316.794 180.971 316.794C183.124 316.794 185.23 316.603 187.24 316.22V307.084C185.757 307.323 184.177 307.419 182.502 307.419C173.935 307.419 170.154 303.018 170.154 295.652V264.562H187.24V256.048H170.154L170.106 237.633Z" fill="white"/>
  <path d="M133.986 315.37H144.18V256.059H133.986V315.37Z" fill="white"/>
  <path d="M133.986 247.879H144.18V237.691H133.986V247.879Z" fill="white"/>
  <path d="M206.974 208.052L236.743 116.539H177.248L206.974 208.052Z" fill="#E24329"/>
  <path d="M135.551 116.539L126.485 144.342C125.665 146.867 126.551 149.653 128.716 151.227L206.974 208.051L135.551 116.539Z" fill="#FCA326"/>
  <path d="M135.551 116.539H177.248L159.302 61.4259C158.384 58.6062 154.381 58.6062 153.43 61.4259L135.551 116.539Z" fill="#E24329"/>
  <path d="M278.44 116.539L287.472 144.342C288.293 146.867 287.407 149.653 285.242 151.227L206.974 208.052L278.44 116.539Z" fill="#FCA326"/>
  <path d="M278.44 116.539H236.743L254.655 61.4259C255.573 58.6062 259.576 58.6062 260.527 61.4259L278.44 116.539Z" fill="#E24329"/>
  <path d="M206.974 208.052L236.743 116.539H278.44L206.974 208.052Z" fill="#FC6D26"/>
  <path d="M206.974 208.052L135.551 116.539H177.248L206.974 208.052Z" fill="#FC6D26"/>
  </svg>
  